# xmcd CD database file
#
# Track frame offsets:
#	150
#	25030
#	51235
#	73032
#	94272
#	114910
#	137407
#	149485
#	173785
#	194592
#
# Disc length: 2911 seconds
#
# Revision: 0
# Processed by: cddbd v1.5PL3 Copyright (c) Steve Scherf et al.
# Submitted via: CDex 1.51
#
DISCID=8d0b5d0a
DTITLE=Lenny Popkin - Lenny Popkin
DYEAR=1900
DGENRE=Jazz
TTITLE0=Trio
TTITLE1=Ballad
TTITLE2=Orion
TTITLE3=NightFight
TTITLE4=I Surrender Dear
TTITLE5=Lifeline
TTITLE6=Formation
TTITLE7=Soft Walk
TTITLE8=Onyx
TTITLE9=GlidePath
EXTD=
EXTT0=
EXTT1=
EXTT2=
EXTT3=
EXTT4=
EXTT5=
EXTT6=
EXTT7=
EXTT8=
EXTT9=
PLAYORDER=
